<svg width="40" height="46" viewBox="0 0 40 46" fill="none" xmlns="http://www.w3.org/2000/svg">
<path d="M32.09 45.7802H7.95C6.56621 45.7789 5.21689 45.3484 4.08794 44.5482C2.959 43.748 2.10597 42.6173 1.64639 41.3121C1.18681 40.0068 1.1433 38.5912 1.52183 37.2602C1.90037 35.9292 2.68234 34.7483 3.76 33.8802L33.68 9.83024C34.3454 9.3165 34.832 8.6062 35.0707 7.80021C35.3095 6.99421 35.2882 6.13348 35.01 5.34024C34.736 4.54973 34.2211 3.86503 33.5376 3.38249C32.8542 2.89994 32.0366 2.64385 31.2 2.65024H7.65C6.32392 2.65024 5.05215 3.17702 4.11447 4.1147C3.17678 5.05238 2.65 6.32415 2.65 7.65024C2.65 8.97632 3.17678 10.2481 4.11447 11.1858C5.05215 12.1235 6.32392 12.6502 7.65 12.6502H8.4C8.73154 12.6791 9.04023 12.8311 9.26512 13.0764C9.49002 13.3217 9.61478 13.6424 9.61478 13.9752C9.61478 14.308 9.49002 14.6287 9.26512 14.874C9.04023 15.1193 8.73154 15.2714 8.4 15.3002H7.65C5.62109 15.3002 3.67529 14.4943 2.24063 13.0596C0.80598 11.625 0 9.67914 0 7.65024C0 5.62133 0.80598 3.67552 2.24063 2.24087C3.67529 0.806216 5.62109 0.000236674 7.65 0.000236674H31.15C32.5379 -0.0115053 33.8943 0.413937 35.0269 1.21625C36.1594 2.01856 37.0107 3.15702 37.46 4.47024C37.9275 5.7749 37.9745 7.19326 37.5942 8.52598C37.2139 9.85869 36.4256 11.0387 35.34 11.9002L5.42 36.0002C4.74722 36.513 4.25431 37.2258 4.0121 38.0363C3.76989 38.8468 3.79085 39.7132 4.07198 40.511C4.3531 41.3088 4.87991 41.997 5.57671 42.4766C6.2735 42.9562 7.1044 43.2025 7.95 43.1802H32.09C33.4161 43.1802 34.6879 42.6535 35.6255 41.7158C36.5632 40.7781 37.09 39.5063 37.09 38.1802C37.09 36.8542 36.5632 35.5824 35.6255 34.6447C34.6879 33.707 33.4161 33.1802 32.09 33.1802H30.68C30.3485 33.1514 30.0398 32.9993 29.8149 32.754C29.59 32.5087 29.4652 32.188 29.4652 31.8552C29.4652 31.5224 29.59 31.2017 29.8149 30.9564C30.0398 30.7111 30.3485 30.5591 30.68 30.5302H32.09C34.1163 30.5302 36.0595 31.3352 37.4923 32.7679C38.9251 34.2007 39.73 36.144 39.73 38.1702C39.73 40.1965 38.9251 42.1398 37.4923 43.5725C36.0595 45.0053 34.1163 45.8102 32.09 45.8102" fill="#268FF1"/>
<path d="M3.71 27.5302C3.51662 27.5265 3.3265 27.4797 3.1535 27.3932C2.9805 27.3067 2.82899 27.1827 2.71 27.0302C2.60121 26.8945 2.52031 26.7386 2.47197 26.5715C2.42363 26.4044 2.40879 26.2294 2.4283 26.0566C2.44782 25.8837 2.5013 25.7164 2.58569 25.5643C2.67007 25.4122 2.78368 25.2783 2.92 25.1702L23.27 9.00022H12.01C11.8336 8.99893 11.6593 8.96259 11.4971 8.89329C11.3349 8.82399 11.1881 8.72312 11.0653 8.59656C10.9424 8.47 10.846 8.32027 10.7816 8.15609C10.7171 7.9919 10.686 7.81654 10.69 7.64022C10.7026 7.29507 10.846 6.96763 11.0911 6.72434C11.3362 6.48105 11.6648 6.34015 12.01 6.33022H23.31C23.8282 6.32496 24.3367 6.47061 24.7735 6.74939C25.2103 7.02817 25.5565 7.42803 25.77 7.90022C26.0095 8.42728 26.0648 9.01957 25.9269 9.58185C25.7891 10.1441 25.4661 10.6437 25.01 11.0002L4.54 27.2402C4.30271 27.4254 4.01101 27.5274 3.71 27.5302Z" fill="#268FF1"/>
<path d="M27.01 39.4102H15.61C15.0692 39.4037 14.5437 39.2301 14.1055 38.9131C13.6674 38.596 13.338 38.1512 13.1627 37.6396C12.9874 37.1279 12.9748 36.5746 13.1265 36.0555C13.2782 35.5364 13.5868 35.0769 14.01 34.7402L34.45 18.5002C34.5859 18.3925 34.7417 18.3126 34.9085 18.2652C35.0753 18.2177 35.2498 18.2035 35.422 18.2235C35.5943 18.2435 35.7609 18.2972 35.9124 18.3815C36.0639 18.4659 36.1973 18.5793 36.305 18.7152C36.4127 18.8511 36.4925 19.0069 36.54 19.1737C36.5875 19.3405 36.6017 19.515 36.5817 19.6872C36.5617 19.8595 36.508 20.0261 36.4237 20.1776C36.3393 20.3291 36.2259 20.4625 36.09 20.5702L15.7 36.7602H27.01C27.1937 36.7442 27.3787 36.7666 27.5532 36.8259C27.7278 36.8853 27.8881 36.9803 28.024 37.1048C28.1599 37.2294 28.2684 37.3809 28.3427 37.5497C28.4169 37.7185 28.4552 37.9008 28.4552 38.0852C28.4552 38.2696 28.4169 38.4519 28.3427 38.6207C28.2684 38.7894 28.1599 38.9409 28.024 39.0655C27.8881 39.1901 27.7278 39.2851 27.5532 39.3444C27.3787 39.4038 27.1937 39.4262 27.01 39.4102Z" fill="#268FF1"/>
</svg>
